<?xml version="1.0" encoding="UTF-8" standalone="no"?>
<!DOCTYPE svg PUBLIC "-//W3C//DTD SVG 1.1//EN"
 "http://www.w3.org/Graphics/SVG/1.1/DTD/svg11.dtd">
<!-- Generated by graphviz version 12.2.1 (0)
 -->
<!-- Pages: 1 -->
<svg width="1029pt" height="455pt"
 viewBox="0.00 0.00 1028.62 454.50" xmlns="http://www.w3.org/2000/svg" xmlns:xlink="http://www.w3.org/1999/xlink">
<g id="graph0" class="graph" transform="scale(1 1) rotate(0) translate(4 450.5)">
<polygon fill="#191919" stroke="none" points="-4,4 -4,-450.5 1024.62,-450.5 1024.62,4 -4,4"/>
<!-- a -->
<g id="node1" class="node">
<title>a</title>
<text text-anchor="middle" x="462.12" y="-412.1" font-family="Libertinus Serif" font-size="32.00" fill="#eeeeee">Atayal</text>
</g>
<!-- na -->
<g id="node2" class="node">
<title>na</title>
<text text-anchor="middle" x="338.12" y="-330.6" font-family="Libertinus Serif" font-size="32.00" fill="#eeeeee">Northern Atayal</text>
</g>
<!-- a&#45;&#45;na -->
<g id="edge1" class="edge">
<title>a&#45;&#45;na</title>
<path fill="none" stroke="#eeeeee" d="M428.24,-401.03C410.74,-389.81 389.46,-376.16 371.97,-364.95"/>
</g>
<!-- sa -->
<g id="node3" class="node">
<title>sa</title>
<text text-anchor="middle" x="632.12" y="-330.6" font-family="Libertinus Serif" font-size="32.00" fill="#eeeeee">Southern Atayal</text>
</g>
<!-- a&#45;&#45;sa -->
<g id="edge2" class="edge">
<title>a&#45;&#45;sa</title>
<path fill="none" stroke="#eeeeee" d="M508.58,-401.03C532.57,-389.81 561.75,-376.16 585.73,-364.95"/>
</g>
<!-- nna -->
<g id="node4" class="node">
<title>nna</title>
<text text-anchor="start" x="287.12" y="-249.1" font-family="Libertinus Serif" font-size="32.00" fill="#eeeeee">Nuclear</text>
<text text-anchor="start" x="230.5" y="-211.6" font-family="Libertinus Serif" font-size="32.00" fill="#eeeeee">Northern Atayal</text>
</g>
<!-- na&#45;&#45;nna -->
<g id="edge3" class="edge">
<title>na&#45;&#45;nna</title>
<path fill="none" stroke="#eeeeee" d="M338.12,-319.93C338.12,-309.21 338.12,-295.85 338.12,-283.29"/>
</g>
<!-- ml -->
<g id="node8" class="node">
<title>ml</title>
<text text-anchor="start" x="8" y="-11.1" font-family="Libertinus Serif" font-size="32.00" fill="greenyellow">Matu’uwal</text>
</g>
<!-- na&#45;&#45;ml -->
<g id="edge4" class="edge">
<title>na&#45;&#45;ml</title>
<path fill="none" stroke="#eeeeee" d="M270.51,-319.64C250.33,-310.8 229.29,-298.93 213.12,-283.5 139.42,-213.14 98.35,-93.66 84.02,-45.16"/>
</g>
<!-- nsa -->
<g id="node5" class="node">
<title>nsa</title>
<text text-anchor="start" x="581.12" y="-249.1" font-family="Libertinus Serif" font-size="32.00" fill="#eeeeee">Nuclear</text>
<text text-anchor="start" x="525.25" y="-211.6" font-family="Libertinus Serif" font-size="32.00" fill="#eeeeee">Southern Atayal</text>
</g>
<!-- sa&#45;&#45;nsa -->
<g id="edge7" class="edge">
<title>sa&#45;&#45;nsa</title>
<path fill="none" stroke="#eeeeee" d="M632.12,-319.93C632.12,-309.21 632.12,-295.85 632.12,-283.29"/>
</g>
<!-- pl -->
<g id="node15" class="node">
<title>pl</title>
<text text-anchor="start" x="883.62" y="-11.1" font-family="Libertinus Serif" font-size="32.00" fill="greenyellow">Plngawan</text>
</g>
<!-- sa&#45;&#45;pl -->
<g id="edge8" class="edge">
<title>sa&#45;&#45;pl</title>
<path fill="none" stroke="#eeeeee" d="M694.29,-319.51C715.25,-310.38 737.92,-298.38 756.12,-283.5 842.98,-212.54 911.31,-93.91 937.05,-45.41"/>
</g>
<!-- sk -->
<g id="node9" class="node">
<title>sk</title>
<text text-anchor="start" x="182" y="-11.1" font-family="Libertinus Serif" font-size="32.00" fill="gray">Skikun</text>
</g>
<!-- nna&#45;&#45;sk -->
<g id="edge5" class="edge">
<title>nna&#45;&#45;sk</title>
<path fill="none" stroke="#eeeeee" d="M317.69,-200.65C294.46,-154.75 257.37,-81.52 239.07,-45.37"/>
</g>
<!-- sq -->
<g id="node10" class="node">
<title>sq</title>
<text text-anchor="start" x="308.25" y="-11.1" font-family="Libertinus Serif" font-size="32.00" fill="gray">Squliq</text>
</g>
<!-- nna&#45;&#45;sq -->
<g id="edge6" class="edge">
<title>nna&#45;&#45;sq</title>
<path fill="none" stroke="#eeeeee" d="M340.17,-200.65C342.49,-154.75 346.2,-81.52 348.03,-45.37"/>
</g>
<!-- swa -->
<g id="node6" class="node">
<title>swa</title>
<text text-anchor="start" x="437.75" y="-130.1" font-family="Libertinus Serif" font-size="32.00" fill="#eeeeee">Southwestern</text>
<text text-anchor="start" x="485.38" y="-92.6" font-family="Libertinus Serif" font-size="32.00" fill="#eeeeee">Atayal</text>
</g>
<!-- nsa&#45;&#45;swa -->
<g id="edge9" class="edge">
<title>nsa&#45;&#45;swa</title>
<path fill="none" stroke="#eeeeee" d="M596.33,-200.74C585.88,-188.97 574.44,-176.11 563.98,-164.34"/>
</g>
<!-- sea -->
<g id="node7" class="node">
<title>sea</title>
<text text-anchor="start" x="652.62" y="-130.1" font-family="Libertinus Serif" font-size="32.00" fill="#eeeeee">Southeastern</text>
<text text-anchor="start" x="695.38" y="-92.6" font-family="Libertinus Serif" font-size="32.00" fill="#eeeeee">Atayal</text>
</g>
<!-- nsa&#45;&#45;sea -->
<g id="edge10" class="edge">
<title>nsa&#45;&#45;sea</title>
<path fill="none" stroke="#eeeeee" d="M668.6,-200.74C679.26,-188.97 690.91,-176.11 701.58,-164.34"/>
</g>
<!-- su -->
<g id="node11" class="node">
<title>su</title>
<text text-anchor="start" x="423.88" y="-11.1" font-family="Libertinus Serif" font-size="32.00" fill="gray">S’uli</text>
</g>
<!-- swa&#45;&#45;su -->
<g id="edge11" class="edge">
<title>swa&#45;&#45;su</title>
<path fill="none" stroke="#eeeeee" d="M497.4,-81.75C487.86,-69.25 477.7,-55.95 469.53,-45.24"/>
</g>
<!-- mw -->
<g id="node12" class="node">
<title>mw</title>
<text text-anchor="start" x="516.75" y="-11.1" font-family="Libertinus Serif" font-size="32.00" fill="gray">Matu’aw</text>
</g>
<!-- swa&#45;&#45;mw -->
<g id="edge12" class="edge">
<title>swa&#45;&#45;mw</title>
<path fill="none" stroke="#eeeeee" d="M546.97,-81.75C552.82,-69.25 559.05,-55.95 564.06,-45.24"/>
</g>
<!-- kl -->
<g id="node13" class="node">
<title>kl</title>
<text text-anchor="start" x="665.62" y="-11.1" font-family="Libertinus Serif" font-size="32.00" fill="gray">Klesan</text>
</g>
<!-- sea&#45;&#45;kl -->
<g id="edge13" class="edge">
<title>sea&#45;&#45;kl</title>
<path fill="none" stroke="#eeeeee" d="M726.25,-81.75C722.55,-69.25 718.63,-55.95 715.47,-45.24"/>
</g>
<!-- ba -->
<g id="node14" class="node">
<title>ba</title>
<text text-anchor="start" x="786.25" y="-11.1" font-family="Libertinus Serif" font-size="32.00" fill="gray">B’ala</text>
</g>
<!-- sea&#45;&#45;ba -->
<g id="edge14" class="edge">
<title>sea&#45;&#45;ba</title>
<path fill="none" stroke="#eeeeee" d="M770.89,-81.75C781.08,-69.25 791.91,-55.95 800.63,-45.24"/>
</g>
<!-- ml&#45;&#45;sk -->
<!-- sk&#45;&#45;sq -->
<!-- sq&#45;&#45;su -->
<!-- su&#45;&#45;mw -->
<!-- mw&#45;&#45;kl -->
<!-- kl&#45;&#45;ba -->
<!-- ba&#45;&#45;pl -->
</g>
</svg>
